# 🎬 Video Conversion Guide - Fix "Video format not supported" Error

## ❌ Current Problem

Your terminal logs show:
```
Video error - showing fallback: Video format not supported. Please use H.264 codec.
```

This error appears **repeatedly** for both 2nd and 3rd splash screens, which means:

1. **2nd splash video** (`2nd_splash_h264.mp4`) - Raw H.264 file renamed to .mp4
2. **3rd splash video** (`splash_video.mp4`) - Likely also needs conversion

---

## 🔍 Root Cause

**Raw H.264 files are NOT valid MP4 files!**

- `.h264` file = Raw video stream (no container)
- Renaming to `.mp4` = Still raw stream, just different extension
- Flutter's `video_player` = Requires proper MP4 container with:
  - ✅ MP4 file structure (moov atom, mdat, etc.)
  - ✅ Video track (H.264 codec)
  - ✅ Audio track (AAC codec, even if silent)
  - ✅ Metadata and indexes
  - ✅ Fast-start flag

**Your file:** `4753B592-2ndsplashscreenvedio11.h264` → Renamed to `2nd_splash_h264.mp4`
- ❌ This is still a raw H.264 stream
- ❌ Not a valid MP4 container
- ❌ Video_player cannot parse it

---

## ✅ Solution: Proper MP4 Conversion

### **Option 1: Online Converter (RECOMMENDED - 2 minutes)**

**Step 1:** Go to https://cloudconvert.com/h264-to-mp4

**Step 2:** Upload your file:
- `4753B592-2ndsplashscreenvedio11.h264` (for 2nd splash)
- `splash_video.mp4` (for 3rd splash - check if it also needs conversion)

**Step 3:** Click "Convert" (uses default settings which are perfect)

**Step 4:** Download the converted file

**Step 5:** Replace in your project:
```powershell
# Replace 2nd splash video
# Delete old file
Remove-Item "2nd_splash_h264.mp4"

# Copy converted file
Copy-Item "downloaded_file.mp4" -Destination "2nd_splash_h264.mp4"
```

**Step 6:** Rebuild:
```powershell
flutter clean
flutter pub get
flutter build apk --release
```

---

### **Option 2: FFmpeg Command Line**

**Install FFmpeg:**
1. Download: https://www.gyan.dev/ffmpeg/builds/
2. Extract to `C:\ffmpeg`
3. Add to PATH: `C:\ffmpeg\bin`

**Convert 2nd Splash Video:**
```powershell
# Convert raw H.264 to proper MP4 with silent audio
ffmpeg -i "4753B592-2ndsplashscreenvedio11.h264" -f lavfi -i anullsrc=r=44100:cl=mono -c:v copy -c:a aac -b:a 128k -shortest -movflags +faststart "2nd_splash_h264.mp4"
```

**Convert 3rd Splash Video (if needed):**
```powershell
# Check if it needs conversion first
ffmpeg -i "splash_video.mp4" -c:v libx264 -profile:v baseline -level 3.0 -c:a aac -b:a 128k -movflags +faststart "splash_video_converted.mp4"
```

**What each parameter does:**
- `-i input.h264` = Input file
- `-f lavfi -i anullsrc` = Generate silent audio track (required by Android)
- `-c:v copy` = Copy video without re-encoding (fast, preserves quality)
- `-c:a aac` = AAC audio codec
- `-b:a 128k` = Audio bitrate
- `-shortest` = Match audio length to video
- `-movflags +faststart` = Optimize for streaming (important for mobile)

---

### **Option 3: VLC Media Player**

1. Open VLC
2. **Media** → **Convert/Save**
3. Click **Add** and select your `.h264` file
4. Click **Convert/Save**
5. Choose profile: **Video - H.264 + AAC (MP4)**
6. Click **Start**
7. Save as `2nd_splash_h264.mp4`

---

## 🧪 Verify Conversion Worked

After converting, test the file:

**Option 1: Play in VLC/Media Player**
- If it plays smoothly → Good!
- If it doesn't play → Conversion failed, try again

**Option 2: Check with FFprobe (if FFmpeg installed)**
```powershell
ffprobe "2nd_splash_h264.mp4"
```

**Look for:**
- ✅ `Stream #0:0: Video: h264` (video track)
- ✅ `Stream #0:1: Audio: aac` (audio track)
- ✅ `format_name: mov,mp4,m4a,3gp,3g2,mj2` (MP4 container)

---

## 📊 Expected Results After Conversion

### **Before (Current - Not Working):**
```
❌ Video initialization FAILED
❌ Video format not supported
❌ Shows fallback image
```

### **After (Fixed - Working):**
```
✅ Video Initialization Start
✅ Video controller created successfully
✅ Video initialized successfully
✅ Video playing: true
✅ Video displays smoothly
```

---

## 🔄 Complete Fix Checklist

- [ ] Convert `4753B592-2ndsplashscreenvedio11.h264` to proper MP4
- [ ] Save as `2nd_splash_h264.mp4` in project root
- [ ] Verify file plays in media player
- [ ] Check `splash_video.mp4` (3rd splash) - convert if needed
- [ ] Run `flutter clean`
- [ ] Run `flutter pub get`
- [ ] Test with `flutter run`
- [ ] Build APK: `flutter build apk --release`
- [ ] Install and test on device
- [ ] Check logs: `adb logcat | Select-String "Video"`

---

## 🎯 Quick Fix (Fastest Method)

**1. Go to:** https://cloudconvert.com/h264-to-mp4

**2. Upload:** `4753B592-2ndsplashscreenvedio11.h264`

**3. Convert** (takes 30 seconds)

**4. Download** the MP4 file

**5. Replace:**
```powershell
# In your project root
Remove-Item "2nd_splash_h264.mp4" -ErrorAction SilentlyContinue
Copy-Item "downloaded_converted_file.mp4" -Destination "2nd_splash_h264.mp4"
```

**6. Rebuild:**
```powershell
flutter clean
flutter pub get
flutter build apk --release
```

**7. Test:** Install APK and check if video plays!

---

## 📝 Summary

**Problem:** Raw H.264 file renamed to .mp4 is NOT a valid MP4 container

**Solution:** Convert using online tool (2 minutes) or FFmpeg (5 minutes)

**Result:** Proper MP4 file that Flutter's video_player can parse and play

**Time to Fix:** 2-5 minutes

The code is already perfect - it's just waiting for a properly formatted video file! 🎬

